# xmcd
#
# Track frame offsets:
#	150
#	29435
#	59442
#	91190
#	114377
#	141872
#	169457
#	189040
#	226130
#	261695
#	295487
#
# Disc length: 4440 seconds
# Revision: 0
# Processed by: cddbd v1.5.2PL0 Copyright (c) Steve Scherf et al.
# Submitted via: dBpowerAMP V12.0
#
DISCID=9f11560b
DTITLE=The Mike Theodore Orchestra - Cosmic Wind and High On Mad Mountain
DYEAR=1977
DGENRE=Disco
TTITLE0=Belly Boogie
TTITLE1=The Bull
TTITLE2=Cosmic Wind
TTITLE3=Moon Trek
TTITLE4=Ain't Nothing to It
TTITLE5=Brazillian Lullaby
TTITLE6=I Love the Way You Move
TTITLE7=High On Mad Mountain
TTITLE8=Wonder Man
TTITLE9=Disco People
TTITLE10=Dragons of Midnight
EXTD=
EXTT0=
EXTT1=
EXTT2=
EXTT3=
EXTT4=
EXTT5=
EXTT6=
EXTT7=
EXTT8=
EXTT9=
EXTT10=
PLAYORDER=
